# xmcd CD database file
#
# Track frame offsets:
#	150
#	23658
#	39717
#	55697
#	71095
#	90106
#	110979
#	125767
#	145062
#	159273
#
# Disc length: 2329 seconds
#
# Revision: 0
# Processed by: cddbd v1.5.2PL0 Copyright (c) Steve Scherf et al.
# Submitted via: ACXtractor (MTCDDB.DLL V2003.07.15)
#
DISCID=8209170a
DTITLE=Alan Jackson - Angels and Alcohol
DYEAR=2015
DGENRE=Country
TTITLE0=You Can Always Come Home
TTITLE1=You Never Know
TTITLE2=Angels and Alcohol
TTITLE3=Gone Before You Met Me
TTITLE4=The One Your Waiting On
TTITLE5=Jim and Jack and Hank
TTITLE6=I Leave a Light On
TTITLE7=Flaws
TTITLE8=When God Paints
TTITLE9=Mexico, Tequila and Me
EXTD=ID3G:   2 YEAR: 2015
EXTT0=
EXTT1=
EXTT2=
EXTT3=
EXTT4=
EXTT5=
EXTT6=
EXTT7=
EXTT8=
EXTT9=
PLAYORDER=
